<svg width="27" height="18" viewBox="0 0 27 18" fill="none" xmlns="http://www.w3.org/2000/svg">
<path d="M26.105 17.106C25.876 17.106 25.666 16.975 25.576 16.76C25.51 16.604 23.86 12.903 17.691 12.17C16.406 12.014 14.867 11.934 12.998 11.92V16.533C12.998 16.746 12.883 16.939 12.694 17.041C12.506 17.139 12.281 17.125 12.106 17.008L0.254 9.02996C0.094 8.92296 0 8.74296 0 8.55396C0 8.36296 0.094 8.18896 0.254 8.07696L12.111 0.097956C12.286 -0.023044 12.509 -0.0310438 12.699 0.0689562C12.889 0.170956 13.002 0.363956 13.002 0.570956V4.86396C15.58 5.19996 26.676 7.19396 26.676 16.538C26.676 16.809 26.485 17.046 26.217 17.1C26.18 17.106 26.141 17.106 26.105 17.106Z" fill="#06B6D4"/>
</svg>
