<svg width="18" height="18" viewBox="0 0 18 18" fill="none" xmlns="http://www.w3.org/2000/svg">
<path d="M16.0855 0.000268273C15.8318 0.00625579 15.5908 0.112429 15.4152 0.295581L8.5339 7.17683L1.65265 0.295581C1.56316 0.203335 1.45605 0.129997 1.33769 0.0799139C1.21933 0.0298307 1.09211 0.00402216 0.963588 0.00401827C0.772495 0.00406302 0.585763 0.061131 0.427291 0.167918C0.26882 0.274704 0.14582 0.426351 0.0740352 0.603448C0.00225001 0.780545 -0.0150545 0.975035 0.0243365 1.16202C0.0637275 1.34901 0.158022 1.51999 0.295151 1.65308L7.1764 8.53433L0.295151 15.4156C0.203018 15.504 0.129462 15.61 0.0787896 15.7272C0.0281175 15.8445 0.00134828 15.9707 4.96326e-05 16.0984C-0.00124902 16.2261 0.0229491 16.3528 0.0712266 16.471C0.119504 16.5893 0.190891 16.6967 0.281206 16.787C0.37152 16.8773 0.478948 16.9487 0.597197 16.997C0.715446 17.0453 0.84214 17.0695 0.969858 17.0682C1.09758 17.0669 1.22375 17.0401 1.34099 16.9894C1.45824 16.9388 1.56419 16.8652 1.65265 16.7731L8.5339 9.89183L15.4152 16.7731C15.5036 16.8652 15.6096 16.9388 15.7268 16.9894C15.8441 17.0401 15.9702 17.0669 16.0979 17.0682C16.2257 17.0695 16.3524 17.0453 16.4706 16.997C16.5889 16.9487 16.6963 16.8773 16.7866 16.787C16.8769 16.6967 16.9483 16.5893 16.9966 16.471C17.0449 16.3528 17.0691 16.2261 17.0678 16.0984C17.0665 15.9707 17.0397 15.8445 16.989 15.7272C16.9383 15.61 16.8648 15.504 16.7727 15.4156L9.8914 8.53433L16.7727 1.65308C16.9123 1.51913 17.0083 1.34609 17.0479 1.15665C17.0875 0.967207 17.069 0.770215 16.9947 0.591507C16.9204 0.412798 16.7938 0.260718 16.6315 0.15521C16.4693 0.0497026 16.2789 -0.00430576 16.0855 0.000268273Z" fill="#06B6D4"/>
</svg>
