<svg width="21" height="14" viewBox="0 0 21 14" fill="none" xmlns="http://www.w3.org/2000/svg">
<path d="M1.01424 0.000100007C0.881731 -0.00177404 0.750168 0.0227073 0.6272 0.072121C0.504231 0.121535 0.39231 0.194895 0.29794 0.28794C0.203571 0.380984 0.128635 0.491857 0.0774869 0.614114C0.0263392 0.736371 0 0.867575 0 1.0001C0 1.13263 0.0263392 1.26383 0.0774869 1.38609C0.128635 1.50834 0.203571 1.61922 0.29794 1.71226C0.39231 1.8053 0.504231 1.87867 0.6272 1.92808C0.750168 1.97749 0.881731 2.00197 1.01424 2.0001H19.0142C19.1468 2.00197 19.2783 1.97749 19.4013 1.92808C19.5243 1.87867 19.6362 1.8053 19.7305 1.71226C19.8249 1.61922 19.8999 1.50834 19.951 1.38609C20.0021 1.26383 20.0285 1.13263 20.0285 1.0001C20.0285 0.867575 20.0021 0.736371 19.951 0.614114C19.8999 0.491857 19.8249 0.380984 19.7305 0.28794C19.6362 0.194895 19.5243 0.121535 19.4013 0.072121C19.2783 0.0227073 19.1468 -0.00177404 19.0142 0.000100007H1.01424ZM1.01424 6.0001C0.881731 5.99823 0.750168 6.02271 0.6272 6.07212C0.504231 6.12153 0.39231 6.1949 0.29794 6.28794C0.203571 6.38098 0.128635 6.49186 0.0774869 6.61411C0.0263392 6.73637 0 6.86758 0 7.0001C0 7.13263 0.0263392 7.26383 0.0774869 7.38609C0.128635 7.50834 0.203571 7.61922 0.29794 7.71226C0.39231 7.8053 0.504231 7.87867 0.6272 7.92808C0.750168 7.97749 0.881731 8.00197 1.01424 8.0001H19.0142C19.1468 8.00197 19.2783 7.97749 19.4013 7.92808C19.5243 7.87867 19.6362 7.8053 19.7305 7.71226C19.8249 7.61922 19.8999 7.50834 19.951 7.38609C20.0021 7.26383 20.0285 7.13263 20.0285 7.0001C20.0285 6.86758 20.0021 6.73637 19.951 6.61411C19.8999 6.49186 19.8249 6.38098 19.7305 6.28794C19.6362 6.1949 19.5243 6.12153 19.4013 6.07212C19.2783 6.02271 19.1468 5.99823 19.0142 6.0001H1.01424ZM1.01424 12.0001C0.881731 11.9982 0.750168 12.0227 0.6272 12.0721C0.504231 12.1215 0.39231 12.1949 0.29794 12.2879C0.203571 12.381 0.128635 12.4919 0.0774869 12.6141C0.0263392 12.7364 0 12.8676 0 13.0001C0 13.1326 0.0263392 13.2638 0.0774869 13.3861C0.128635 13.5083 0.203571 13.6192 0.29794 13.7123C0.39231 13.8053 0.504231 13.8787 0.6272 13.9281C0.750168 13.9775 0.881731 14.002 1.01424 14.0001H19.0142C19.1468 14.002 19.2783 13.9775 19.4013 13.9281C19.5243 13.8787 19.6362 13.8053 19.7305 13.7123C19.8249 13.6192 19.8999 13.5083 19.951 13.3861C20.0021 13.2638 20.0285 13.1326 20.0285 13.0001C20.0285 12.8676 20.0021 12.7364 19.951 12.6141C19.8999 12.4919 19.8249 12.381 19.7305 12.2879C19.6362 12.1949 19.5243 12.1215 19.4013 12.0721C19.2783 12.0227 19.1468 11.9982 19.0142 12.0001H1.01424Z" fill="white"/>
</svg>
