<svg width="512" height="512" viewBox="0 0 512 512" fill="none" xmlns="http://www.w3.org/2000/svg">
<path d="M177.172 46.418L150.008 31.561L135.142 4.38799C131.949 -1.46201 122.318 -1.46201 119.125 4.38799L104.259 31.561L77.0941 46.418C74.1601 48.019 72.3411 51.091 72.3411 54.431C72.3411 57.771 74.1601 60.843 77.0941 62.444L104.258 77.306L119.124 104.475C120.72 107.405 123.797 109.224 127.133 109.224C130.468 109.224 133.545 107.405 135.141 104.475L150.007 77.306L177.171 62.444C180.105 60.843 181.924 57.771 181.924 54.431C181.924 51.091 180.106 48.019 177.172 46.418ZM138.896 62.565C137.362 63.403 136.105 64.665 135.266 66.195L127.133 81.061L119 66.194C118.162 64.665 116.904 63.403 115.37 62.564L100.504 54.431L115.37 46.302C116.904 45.464 118.161 44.202 119 42.672L127.133 27.806L135.266 42.672C136.104 44.201 137.362 45.463 138.896 46.302L153.762 54.431L138.896 62.565Z" fill="white"/>
<path d="M479.903 96.4438C485.147 82.7818 484.754 67.8928 478.806 54.5248C467.775 29.7678 440.525 17.2258 415.123 23.7518L411.092 14.6968C410.111 12.4848 408.292 10.7548 406.026 9.88579C403.77 9.01679 401.255 9.08779 399.043 10.0688L365.672 24.9258C361.061 26.9768 358.993 32.3768 361.044 36.9828L364.758 45.3258L339.73 56.4688L306.359 71.3268L122.841 153.03C122.83 153.036 122.819 153.037 122.807 153.042L89.445 167.898C84.843 169.95 82.775 175.35 84.826 179.956L92.252 196.639L33.85 222.642C31.629 223.628 29.899 225.451 29.034 227.712C28.169 229.973 28.231 232.487 29.221 234.699L47.797 276.408C49.304 279.81 52.648 281.83 56.144 281.83C57.384 281.83 58.641 281.571 59.845 281.036L118.247 255.033L125.678 271.721C126.659 273.933 128.478 275.663 130.743 276.532C131.795 276.938 132.91 277.138 134.016 277.138C135.282 277.138 136.549 276.875 137.726 276.349L171.073 261.502C171.084 261.498 171.095 261.497 171.107 261.492L267.776 218.45L151.407 451.19L167.745 459.36L227.415 339.005C236.708 343.84 258.534 353.347 281.365 355.386V512H299.629V355.39C324.742 353.4 344.48 344.291 354.147 339.369L405.504 450.097L422.219 442.441L310.18 199.545L354.61 179.778C354.619 179.772 354.646 179.765 354.657 179.76L387.995 164.92L413.035 153.774L416.754 162.12C417.735 164.332 419.554 166.062 421.819 166.931C422.871 167.337 423.986 167.537 425.094 167.537C426.358 167.537 427.627 167.274 428.804 166.748L462.175 151.891C466.786 149.84 468.854 144.44 466.803 139.834L459.046 122.411C468.486 116.171 475.767 107.218 479.903 96.4438ZM60.765 260.638L49.617 235.614L99.674 213.328L110.821 238.352L60.765 260.638ZM138.646 255.952L105.221 180.871L121.898 173.442L155.332 248.523L138.646 255.952ZM281.366 337.047C260.819 334.976 242.668 326.6 235.086 322.656L281.366 230.098V337.047ZM345.974 322.756C338.182 326.755 320.176 334.998 299.629 337.048V222.339L345.974 322.756ZM283.602 192.378H281.366V191.957L171.512 241.094L138.33 166.013L305.313 91.7258L338.8 167.29L283.602 192.378ZM355.55 159.378L322.125 84.2968L338.811 76.8678L372.236 151.949L355.55 159.378ZM388.921 144.521L355.497 69.4398L372.183 62.0108L405.608 137.092L388.921 144.521ZM429.721 146.349L381.439 37.8968L398.125 30.4678L401.788 38.6978C401.804 38.7348 401.808 38.7738 401.826 38.8108C401.842 38.8468 401.866 38.8768 401.884 38.9118L446.407 138.92L429.721 146.349ZM462.852 89.9028C460.475 96.0918 456.527 101.369 451.464 105.382L422.721 40.8198C438.742 38.1438 455.203 46.4348 462.121 61.9538C466.089 70.8668 466.348 80.7928 462.852 89.9028Z" fill="white"/>
</svg>
