<svg width="100" height="100" viewBox="0 0 100 100" fill="none" xmlns="http://www.w3.org/2000/svg">
<path d="M97.8527 33.4535L84.8421 4.76758L72.9263 9.69546L74.3579 12.8605L37.8526 27.9246L39.4948 31.6105L6.86318 45.032L9.17897 50.2003L2.94739 52.7644L5.05265 57.4118L11.2842 54.8477L13.6421 59.9759L46.3158 46.5544L47.9579 50.2003L84.5053 35.1762L85.9369 38.3413L97.8527 33.4535Z" fill="#06B6D4"/>
<path d="M55.2 62.0996H58.8632V56.8111H52.8421C52.379 54.5274 50.2316 52.8047 47.7053 52.8047C45.1369 52.8047 43.0316 54.5274 42.5684 56.8111H36.5895V62.0996H40.2527L17.2632 100H23.1579L45.2211 63.6621V100H50.3158V63.6621L72.379 100H78.2737L55.2 62.0996Z" fill="#06B6D4"/>
<path d="M10.4842 9.97596L14.0632 0L17.6842 9.97596L28.1684 13.3814L17.6842 16.7869L14.0632 26.7628L10.4842 16.7869L0 13.3814L10.4842 9.97596Z" fill="#06B6D4"/>
<path d="M94.4 78.9662C96.379 79.2066 98.2737 78.9662 100 78.3653C93.979 76.8428 89.9369 71.2739 90.779 65.2242C91.3263 61.2979 93.8527 58.1329 97.2211 56.3701C90.8211 55.729 85.0106 60.0159 84.1263 66.1056C83.2842 72.3556 87.8737 78.1249 94.4 78.9662Z" fill="#06B6D4"/>
</svg>
