<svg width="495" height="508" viewBox="0 0 495 508" fill="none" xmlns="http://www.w3.org/2000/svg">
<path d="M501.525 171.525L434.911 24.6528L373.902 49.8836L381.232 66.0887L194.325 143.217L202.733 162.089L35.6589 230.807L47.5157 257.268L15.6101 270.396L26.389 294.191L58.2947 281.063L70.3671 307.319L237.656 238.602L246.064 257.268L433.187 180.345L440.516 196.55L501.525 171.525Z" fill="white"/>
<path d="M283.144 318.191H301.899V291.114H271.071C268.7 279.422 257.705 270.601 244.771 270.601C231.62 270.601 220.841 279.422 218.47 291.114H187.858V318.191H206.613L88.9069 512.242H119.088L232.051 326.191V512.242H258.136V326.191L371.1 512.242H401.281L283.144 318.191Z" fill="white"/>
<path d="M54.1987 51.3191L72.5229 0.242188L91.0627 51.3191L144.742 68.755L91.0627 86.1909L72.5229 137.268L54.1987 86.1909L0.519531 68.755L54.1987 51.3191Z" fill="white"/>
<path d="M483.848 404.55C493.98 405.781 503.681 404.55 512.52 401.473C481.692 393.678 460.996 365.165 465.308 334.191C468.11 314.088 481.045 297.883 498.291 288.857C465.523 285.575 435.773 307.524 431.246 338.704C426.935 370.704 450.433 400.242 483.848 404.55Z" fill="white"/>
</svg>
