<svg width="120" height="195" viewBox="0 0 120 195" fill="none" xmlns="http://www.w3.org/2000/svg">
<path fill-rule="evenodd" clip-rule="evenodd" d="M29.4737 93.3045L5.07651 97.3231L28.3928 101.164C4.23824 147.25 -6.32724 186.783 4.73814 193.172C14.0224 198.532 35.8999 179.038 59.1433 146.657L60.0765 152.323L61.5742 143.231C62.1436 142.419 62.7137 141.599 63.2841 140.772C73.0075 148.156 82.3625 150.882 88.8396 147.142C98.6652 141.469 98.9175 122.622 90.6794 101.342L115.077 97.3231L91.7602 93.4825C115.915 47.3961 126.48 7.86274 115.415 1.47414C106.131 -3.88611 84.2532 15.6077 61.0098 47.9888L60.0765 42.323L58.5789 51.4154C58.0094 52.2275 57.4394 53.047 56.8689 53.8738C47.1456 46.49 37.7906 43.7644 31.3135 47.5039C21.4878 53.1768 21.2355 72.024 29.4737 93.3045ZM35.3518 172.889C42.6534 165.106 50.5907 155.262 58.6825 143.86L57.3414 135.718C50.4042 129.185 43.5381 120.489 37.6415 110.276C36.0407 107.503 34.5724 104.724 33.2389 101.962L30.4719 101.506C19.7329 121.923 11.6786 141.037 6.99681 156.518C4.04299 166.286 2.46525 174.499 2.35386 180.634C2.29816 183.702 2.61211 186.146 3.23385 187.968C3.85002 189.774 4.72404 190.854 5.73814 191.44C6.75224 192.025 8.12459 192.242 9.99672 191.873C11.8857 191.5 14.1589 190.55 16.7883 188.968C22.046 185.804 28.3698 180.331 35.3518 172.889ZM35.6614 102.361C36.8036 104.659 38.0413 106.968 39.3736 109.276C44.642 118.401 50.6749 126.26 56.7944 132.397L52.2983 105.101L35.6614 102.361ZM62.8418 137.882C62.7283 137.79 62.6147 137.697 62.5011 137.603L67.8547 105.101L84.7161 102.324C83.4355 104.63 82.123 106.949 80.7795 109.276C74.8898 119.477 68.846 129.08 62.8418 137.882ZM64.4172 139.121C64.8525 139.453 65.2868 139.775 65.7198 140.086C74.8728 146.677 82.7498 148.349 87.8396 145.41C92.9294 142.471 95.4204 134.814 94.2891 123.592C93.6272 117.026 91.7387 109.531 88.6625 101.674L87.2306 101.91C85.7031 104.683 84.1295 107.473 82.5115 110.276C76.5755 120.557 70.4789 130.242 64.4172 139.121ZM86.9141 92.6843L89.6811 93.14C100.42 72.7233 108.474 53.6091 113.156 38.1277C116.11 28.3603 117.688 20.1473 117.799 14.012C117.855 10.9436 117.541 8.50002 116.919 6.67772C116.303 4.87172 115.429 3.79168 114.415 3.20619C113.401 2.6207 112.028 2.4038 110.156 2.77317C108.267 3.14588 105.994 4.09578 103.365 5.6782C98.107 8.84232 91.7832 14.3152 84.8013 21.757C77.4996 29.5396 69.5624 39.3845 61.4705 50.7859L62.8116 58.9282C69.7488 65.4607 76.6149 74.157 82.5115 84.3702C84.1123 87.1429 85.5806 89.9216 86.9141 92.6843ZM63.3586 62.249C69.4781 68.386 75.511 76.2449 80.7795 85.3702C82.1117 87.6777 83.3495 89.9872 84.4917 92.2852L67.8547 89.5449L63.3586 62.249ZM57.3113 56.7644C57.4248 56.8565 57.5383 56.9493 57.652 57.0427L52.2983 89.5449L35.4369 92.3222C36.7175 90.0156 38.0301 87.6972 39.3736 85.3702C45.2632 75.169 51.307 65.5658 57.3113 56.7644ZM55.7358 55.5248C49.6741 64.4041 43.5775 74.0887 37.6415 84.3702C36.0235 87.1726 34.4499 89.9632 32.9224 92.7364L31.4905 92.9722C28.4143 85.1152 26.5259 77.6201 25.8639 71.054C24.7326 59.8319 27.2236 52.1746 32.3135 49.236C37.4033 46.2974 45.2802 47.9688 54.4332 54.5596C54.8663 54.8714 55.3005 55.1932 55.7358 55.5248Z" fill="white"/>
</svg>
